# xmcd CD database file
#
# Track frame offsets:
#	150
#	35131
#	50447
#	75508
#	98390
#	122666
#	166447
#	190912
#	242689
#	264874
#	285947
#	316318
#
# Disc length: 4318 seconds
#
# Revision: 0
# Processed by: cddbd v1.5.2PL0 Copyright (c) Steve Scherf et al.
# Submitted via: CDex 1.51
#
DISCID=9210dc0c
DTITLE=Clark Terry and The Young Titans Of Jazz  - Live At Marihans
DYEAR=2005
DGENRE=Jazz
TTITLE0=Intro
TTITLE1=Flintstones Theme
TTITLE2=Easy Does It
TTITLE3=Take The 'A' Train
TTITLE4=Sheeba
TTITLE5=Shell Game
TTITLE6=Zinger
TTITLE7=Bella Blue
TTITLE8=Serpent's Tooth
TTITLE9=I Want A Little Girl
TTITLE10=Oh Lady Be Good
TTITLE11=Theme
EXTD=YEAR: 2005
EXTT0=
EXTT1=
EXTT2=
EXTT3=
EXTT4=
EXTT5=
EXTT6=
EXTT7=
EXTT8=
EXTT9=
EXTT10=
EXTT11=
PLAYORDER=
